<?xml version="1.0" standalone="no"?>
<!DOCTYPE svg PUBLIC "-//W3C//DTD SVG 20010904//EN"
 "http://www.w3.org/TR/2001/REC-SVG-20010904/DTD/svg10.dtd">
<svg version="1.0" xmlns="http://www.w3.org/2000/svg"
 width="150.000000pt" height="150.000000pt" viewBox="0 0 150.000000 150.000000"
 preserveAspectRatio="xMidYMid meet">
<metadata>
Created by potrace 1.14, written by Peter Selinger 2001-2017
</metadata>
<g transform="translate(0.000000,150.000000) scale(0.100000,-0.100000)"
fill="#000000" stroke="none">
<path d="M656 1192 c-3 -6 -1 -33 4 -62 16 -85 10 -101 -10 -26 -18 68 -33 96
-43 79 -3 -4 4 -41 15 -82 10 -40 17 -75 15 -77 -2 -2 -15 30 -28 71 -13 42
-29 75 -36 75 -17 0 -16 -18 2 -70 22 -63 12 -59 -14 5 -13 30 -27 55 -32 55
-21 0 -19 -31 6 -80 14 -29 22 -50 18 -47 -5 3 -19 28 -32 55 -18 39 -27 48
-42 45 -11 -3 -19 -9 -19 -14 0 -5 -7 -9 -15 -9 -9 0 -51 -35 -94 -77 -126
-125 -168 -237 -173 -458 l-3 -120 573 -3 572 -2 0 128 c0 82 -5 149 -15 187
-19 74 -64 169 -103 214 -28 34 -29 34 -50 16 -11 -10 -20 -21 -18 -24 2 -3
-42 -43 -98 -89 l-101 -83 113 109 c61 61 112 114 112 118 0 5 -12 18 -27 28
-22 17 -27 17 -37 5 -37 -49 -180 -219 -184 -219 -5 0 15 27 116 159 40 53 60
87 54 93 -6 6 -37 -30 -85 -99 -116 -165 -126 -172 -32 -20 47 76 83 143 79
148 -10 16 -20 2 -88 -121 -37 -66 -69 -120 -72 -120 -4 0 68 151 106 222 13
24 16 39 9 43 -6 4 -11 5 -13 4 -6 -9 -76 -159 -96 -207 -44 -102 -29 -44 20
81 52 132 56 147 41 147 -5 0 -28 -52 -51 -115 -24 -63 -45 -114 -46 -112 -2
2 10 50 26 108 32 111 35 129 21 129 -4 0 -18 -37 -31 -82 -44 -163 -52 -166
-20 -8 10 52 17 96 15 98 -11 11 -23 -13 -29 -55 -8 -63 -39 -204 -43 -200 -1
2 4 61 12 132 8 70 13 131 10 134 -13 12 -23 -25 -31 -113 l-9 -91 -3 103 c-1
56 -7 102 -12 102 -5 0 -11 -55 -12 -122 l-3 -123 -8 90 c-11 124 -16 155 -28
155 -5 0 -7 -40 -4 -102 l5 -103 -18 97 c-17 97 -25 118 -36 100z m462 -179
c-42 -46 -188 -189 -188 -184 0 2 35 43 78 90 43 47 87 96 97 108 10 12 23 19
28 16 4 -3 -2 -16 -15 -30z m-441 -5 c-3 -8 -6 -5 -6 6 -1 11 2 17 5 13 3 -3
4 -12 1 -19z m467 -80 c-3 -7 -24 -27 -47 -44 -23 -16 -59 -43 -80 -58 -61
-45 -34 -43 36 3 35 22 70 41 78 41 8 0 -24 -23 -71 -51 -92 -56 -127 -72 -95
-45 l20 18 -20 -6 c-21 -6 3 17 75 72 19 15 40 32 45 38 9 10 57 44 62 44 1 0
0 -6 -3 -12z m13 -43 c0 -8 -4 -12 -9 -9 -5 3 -6 10 -3 15 9 13 12 11 12 -6z
m-312 -44 c46 -21 88 -56 104 -88 6 -13 19 -23 29 -22 12 0 13 2 4 6 -16 6 18
31 88 65 25 11 54 25 65 31 55 26 -9 -16 -74 -49 -77 -40 -85 -60 -9 -25 23
11 63 27 88 36 39 13 43 13 26 0 -11 -8 -27 -15 -36 -15 -9 0 -20 -4 -25 -8
-6 -5 -38 -19 -73 -32 -72 -26 -77 -40 -6 -16 26 9 57 16 68 15 12 0 -12 -10
-52 -21 -40 -11 -71 -22 -68 -25 2 -3 38 3 80 12 41 9 81 15 87 13 7 -2 -25
-12 -71 -22 -101 -22 -99 -32 4 -15 42 6 79 9 82 6 3 -3 -9 -8 -27 -11 -19 -3
-59 -9 -89 -15 -53 -10 -52 -10 28 -6 45 2 82 1 82 -4 0 -17 -409 -28 -552
-14 -79 7 -80 11 -44 88 24 53 70 99 121 121 43 19 123 17 170 -5z m315 -91
c-8 -5 -22 -10 -30 -10 -13 0 -13 1 0 10 8 5 22 10 30 10 13 0 13 -1 0 -10z"/>
</g>
</svg>
